# Noesis .obj export.
#
mtllib unused.mtl
g
v  -9125.225586 5618.089844 -30909.179688
v  -9125.225586 5595.743164 -30913.201172
v  181.228745 31.708496 8.846710
v  181.228745 54.055470 12.867767
v  -9060.848633 5621.466797 -30927.947266
v  245.606064 57.432472 -5.899900
v  245.606064 35.085499 -9.920958
v  -9060.848633 5599.120117 -30931.968750

vt  0.000000 0.000000 0.000000
vt  0.000000 0.000000 0.000000
vt  0.000000 0.000000 0.000000
vt  0.000000 0.000000 0.000000
vt  0.000000 0.000000 0.000000
vt  0.000000 0.000000 0.000000
vt  0.000000 0.000000 0.000000
vt  0.000000 0.000000 0.000000

vn  -0.717545 0.637227 -0.281197
vn  -0.507387 -0.754801 -0.415733
vn  -0.666927 -0.512185 0.541179
vn  -0.159544 0.242620 0.956912
vn  0.666922 0.512197 -0.541173
vn  0.507384 0.754804 0.415731
vn  0.717552 -0.637216 0.281202
vn  0.159545 -0.242597 -0.956918

g Mesh_1296.rip
usemtl Tex_8575_7.dds
f  1/1/1 2/2/2 3/3/3
f  1/1/1 3/3/3 4/4/4
f  5/5/5 6/6/6 7/7/7
f  5/5/5 7/7/7 8/8/8
f  1/1/1 4/4/4 6/6/6
f  1/1/1 6/6/6 5/5/5
f  2/2/2 8/8/8 7/7/7
f  2/2/2 7/7/7 3/3/3
f  1/1/1 5/5/5 8/8/8
f  1/1/1 8/8/8 2/2/2
f  4/4/4 3/3/3 7/7/7
f  4/4/4 7/7/7 6/6/6

g
