# Noesis .obj export.
#
mtllib unused.mtl
g
v  -7948.745117 7144.326172 -30096.183594
v  -7948.745117 6925.755371 -30135.511719
v  1357.710449 1361.719727 786.540466
v  1357.710449 1580.290283 825.869507
v  -7652.846680 7159.848145 -30182.445313
v  1653.607910 1595.812012 739.607666
v  1653.607910 1377.241455 700.278625
v  -7652.846680 6941.277344 -30221.773438

vt  0.000000 0.000000 0.000000
vt  0.000000 0.000000 0.000000
vt  0.000000 0.000000 0.000000
vt  0.000000 0.000000 0.000000
vt  0.000000 0.000000 0.000000
vt  0.000000 0.000000 0.000000
vt  0.000000 0.000000 0.000000
vt  0.000000 0.000000 0.000000

vn  -0.717550 0.637220 -0.281200
vn  -0.507383 -0.754804 -0.415732
vn  -0.666928 -0.512183 0.541180
vn  -0.159543 0.242620 0.956912
vn  0.666928 0.512181 -0.541181
vn  0.507383 0.754804 0.415732
vn  0.717549 -0.637221 0.281199
vn  0.159544 -0.242625 -0.956911

g Mesh_1319.rip
usemtl Tex_8575_7.dds
f  1/1/1 2/2/2 3/3/3
f  1/1/1 3/3/3 4/4/4
f  5/5/5 6/6/6 7/7/7
f  5/5/5 7/7/7 8/8/8
f  1/1/1 4/4/4 6/6/6
f  1/1/1 6/6/6 5/5/5
f  2/2/2 8/8/8 7/7/7
f  2/2/2 7/7/7 3/3/3
f  1/1/1 5/5/5 8/8/8
f  1/1/1 8/8/8 2/2/2
f  4/4/4 3/3/3 7/7/7
f  4/4/4 7/7/7 6/6/6

g
