# Noesis .obj export.
#
mtllib unused.mtl
g
v  -5896.877930 3816.373047 -25816.677734
v  -5896.877930 1923.456055 -26157.285156
v  3409.578125 -3640.580078 4764.771973
v  3409.578125 -1747.662598 5105.378906
v  -3551.290527 3939.414063 -26500.476563
v  5755.165527 -1624.621582 4421.579102
v  5755.165527 -3517.539063 4080.972168
v  -3551.290527 2046.497070 -26841.083984

vt  0.000000 0.000000 0.000000
vt  0.000000 0.000000 0.000000
vt  0.000000 0.000000 0.000000
vt  0.000000 0.000000 0.000000
vt  0.000000 0.000000 0.000000
vt  0.000000 0.000000 0.000000
vt  0.000000 0.000000 0.000000
vt  0.000000 0.000000 0.000000

vn  -0.717549 0.637221 -0.281199
vn  -0.507384 -0.754804 -0.415732
vn  -0.666927 -0.512183 0.541180
vn  -0.159544 0.242620 0.956912
vn  0.666927 0.512183 -0.541180
vn  0.507384 0.754804 0.415732
vn  0.717549 -0.637221 0.281199
vn  0.159544 -0.242620 -0.956912

g Mesh_1303.rip
usemtl Tex_8575_7.dds
f  1/1/1 2/2/2 3/3/3
f  1/1/1 3/3/3 4/4/4
f  5/5/5 6/6/6 7/7/7
f  5/5/5 7/7/7 8/8/8
f  1/1/1 4/4/4 6/6/6
f  1/1/1 6/6/6 5/5/5
f  2/2/2 8/8/8 7/7/7
f  2/2/2 7/7/7 3/3/3
f  1/1/1 5/5/5 8/8/8
f  1/1/1 8/8/8 2/2/2
f  4/4/4 3/3/3 7/7/7
f  4/4/4 7/7/7 6/6/6

g
