# Noesis .obj export.
#
mtllib unused.mtl
g
v  9011.360352 -1210.370117 1247.387085
v  11017.275391 -1210.370117 643.677002
v  1710.819824 4353.665527 -30278.375000
v  -295.094727 4353.665527 -29674.664063
v  9114.885742 874.428467 1591.363037
v  -191.570313 6438.464355 -29330.687500
v  1814.344727 6438.464355 -29934.398438
v  11120.799805 874.428467 987.652954

vt  0.000000 0.000000 0.000000
vt  0.000000 0.000000 0.000000
vt  0.000000 0.000000 0.000000
vt  0.000000 0.000000 0.000000
vt  0.000000 0.000000 0.000000
vt  0.000000 0.000000 0.000000
vt  0.000000 0.000000 0.000000
vt  0.000000 0.000000 0.000000

vn  0.417134 0.667001 -0.617341
vn  -0.877823 0.471641 -0.083560
vn  -0.235024 0.735319 0.635665
vn  0.642799 0.263678 0.719224
vn  0.235024 -0.735319 -0.635665
vn  0.877823 -0.471641 0.083560
vn  -0.417134 -0.667001 0.617341
vn  -0.642799 -0.263678 -0.719225

g Mesh_0568.rip
usemtl Tex_2563_3.dds
f  1/1/1 2/2/2 3/3/3
f  1/1/1 3/3/3 4/4/4
f  5/5/5 6/6/6 7/7/7
f  5/5/5 7/7/7 8/8/8
f  1/1/1 4/4/4 6/6/6
f  1/1/1 6/6/6 5/5/5
f  2/2/2 8/8/8 7/7/7
f  2/2/2 7/7/7 3/3/3
f  1/1/1 5/5/5 8/8/8
f  1/1/1 8/8/8 2/2/2
f  4/4/4 3/3/3 7/7/7
f  4/4/4 7/7/7 6/6/6

g
