# Noesis .obj export.
#
mtllib unused.mtl
g
v  0.000000 0.000000 0.000000
v  1.000000 1.000000 0.000000
v  1.000000 0.000000 0.000000
v  0.000000 1.000000 0.000000
v  0.000000 0.000000 0.000000
v  1.000000 1.000000 0.000000
v  1.000000 0.000000 0.000000
v  0.000000 1.000000 0.000000
v  0.000000 0.000000 0.000000
v  1.000000 1.000000 0.000000
v  1.000000 0.000000 0.000000
v  0.000000 1.000000 0.000000
v  0.000000 0.000000 0.000000
v  1.000000 1.000000 0.000000
v  1.000000 0.000000 0.000000
v  0.000000 1.000000 0.000000
v  0.000000 0.000000 0.000000
v  1.000000 1.000000 0.000000
v  1.000000 0.000000 0.000000
v  0.000000 1.000000 0.000000
v  0.000000 0.000000 0.000000
v  1.000000 1.000000 0.000000
v  1.000000 0.000000 0.000000
v  0.000000 1.000000 0.000000
v  0.000000 0.000000 0.000000
v  1.000000 1.000000 0.000000
v  1.000000 0.000000 0.000000
v  0.000000 1.000000 0.000000
v  0.000000 0.000000 0.000000
v  1.000000 1.000000 0.000000
v  1.000000 0.000000 0.000000
v  0.000000 1.000000 0.000000

vt  0.000000 0.000000 0.000000
vt  0.000000 0.000000 0.000000
vt  0.000000 0.000000 0.000000
vt  0.000000 0.000000 0.000000
vt  0.000000 0.000000 0.000000
vt  0.000000 0.000000 0.000000
vt  0.000000 0.000000 0.000000
vt  0.000000 0.000000 0.000000
vt  0.000000 0.000000 0.000000
vt  0.000000 0.000000 0.000000
vt  0.000000 0.000000 0.000000
vt  0.000000 0.000000 0.000000
vt  0.000000 0.000000 0.000000
vt  0.000000 0.000000 0.000000
vt  0.000000 0.000000 0.000000
vt  0.000000 0.000000 0.000000
vt  0.000000 0.000000 0.000000
vt  0.000000 0.000000 0.000000
vt  0.000000 0.000000 0.000000
vt  0.000000 0.000000 0.000000
vt  0.000000 0.000000 0.000000
vt  0.000000 0.000000 0.000000
vt  0.000000 0.000000 0.000000
vt  0.000000 0.000000 0.000000
vt  0.000000 0.000000 0.000000
vt  0.000000 0.000000 0.000000
vt  0.000000 0.000000 0.000000
vt  0.000000 0.000000 0.000000
vt  0.000000 0.000000 0.000000
vt  0.000000 0.000000 0.000000
vt  0.000000 0.000000 0.000000
vt  0.000000 0.000000 0.000000

vn  0.000000 0.000000 -1.000000
vn  0.000000 0.000000 -1.000000
vn  0.000000 0.000000 -1.000000
vn  0.000000 0.000000 -1.000000
vn  0.000000 0.000000 -1.000000
vn  0.000000 0.000000 -1.000000
vn  0.000000 0.000000 -1.000000
vn  0.000000 0.000000 -1.000000
vn  0.000000 0.000000 -1.000000
vn  0.000000 0.000000 -1.000000
vn  0.000000 0.000000 -1.000000
vn  0.000000 0.000000 -1.000000
vn  0.000000 0.000000 -1.000000
vn  0.000000 0.000000 -1.000000
vn  0.000000 0.000000 -1.000000
vn  0.000000 0.000000 -1.000000
vn  0.000000 0.000000 -1.000000
vn  0.000000 0.000000 -1.000000
vn  0.000000 0.000000 -1.000000
vn  0.000000 0.000000 -1.000000
vn  0.000000 0.000000 -1.000000
vn  0.000000 0.000000 -1.000000
vn  0.000000 0.000000 -1.000000
vn  0.000000 0.000000 -1.000000
vn  0.000000 0.000000 -1.000000
vn  0.000000 0.000000 -1.000000
vn  0.000000 0.000000 -1.000000
vn  0.000000 0.000000 -1.000000
vn  0.000000 0.000000 -1.000000
vn  0.000000 0.000000 -1.000000
vn  0.000000 0.000000 -1.000000
vn  0.000000 0.000000 -1.000000

g Mesh_0016.rip
usemtl Tex_0000_0.dds
f  1/1/1 2/2/2 3/3/3
f  1/1/1 4/4/4 2/2/2
f  5/5/5 6/6/6 7/7/7
f  5/5/5 8/8/8 6/6/6
f  9/9/9 10/10/10 11/11/11
f  9/9/9 12/12/12 10/10/10
f  13/13/13 14/14/14 15/15/15
f  13/13/13 16/16/16 14/14/14
f  17/17/17 18/18/18 19/19/19
f  17/17/17 20/20/20 18/18/18
f  21/21/21 22/22/22 23/23/23
f  21/21/21 24/24/24 22/22/22
f  25/25/25 26/26/26 27/27/27
f  25/25/25 28/28/28 26/26/26
f  29/29/29 30/30/30 31/31/31
f  29/29/29 32/32/32 30/30/30

g
