# Noesis .obj export.
#
mtllib unused.mtl
g
v  22244.843750 -5165.468750 -1120.530518
v  22244.843750 1544.390625 -1120.530518
v  22244.843750 1544.390625 629.895264
v  22244.843750 -5165.468750 629.895264
v  30045.843750 -5165.468750 -1120.530518
v  30045.843750 -5165.468750 629.895264
v  30045.843750 1544.390625 629.895264
v  30045.843750 1544.390625 -1120.530518
v  6646.812500 1542.386719 -3001.242432
v  6646.812500 8252.246094 -3001.242432
v  6646.812500 8252.246094 -1332.722900
v  6646.812500 1542.386719 -1332.722900
v  14447.812500 1542.386719 -3001.242432
v  14447.812500 1542.386719 -1332.722900
v  14447.812500 8252.246094 -1332.722900
v  14447.812500 8252.246094 -3001.242432
v  8470.187500 421.839844 -2686.617920
v  8470.187500 1260.824219 -2686.617920
v  8470.187500 1260.824219 -2389.739014
v  8470.187500 421.839844 -2389.739014
v  9323.093750 421.839844 -2686.617920
v  9323.093750 421.839844 -2389.739014
v  9323.093750 1260.824219 -2389.739014
v  9323.093750 1260.824219 -2686.617920
v  8186.000000 181.082031 -2394.146729
v  8186.000000 1580.425781 -2394.146729
v  8186.000000 1580.425781 -2149.108643
v  8186.000000 181.082031 -2149.108643
v  9673.593750 181.082031 -2394.146729
v  9673.593750 181.082031 -2149.108643
v  9673.593750 1580.425781 -2149.108643
v  9673.593750 1580.425781 -2394.146729
v  10425.500000 -2477.195313 -4270.071289
v  10425.500000 -1975.242188 -4270.071289
v  10425.500000 -1975.242188 -3787.963135
v  10425.500000 -2477.195313 -3787.963135
v  10996.656250 -2477.195313 -4270.071289
v  10996.656250 -2477.195313 -3787.963135
v  10996.656250 -1975.242188 -3787.963135
v  10996.656250 -1975.242188 -4270.071289
v  10465.390625 -2459.277344 -4032.640381
v  10465.390625 -1976.464844 -4032.640381
v  10465.390625 -1976.464844 -3331.002686
v  10465.390625 -2459.277344 -3331.002686
v  10978.328125 -2459.277344 -4032.640381
v  10978.328125 -2459.277344 -3331.002686
v  10978.328125 -1976.464844 -3331.002686
v  10978.328125 -1976.464844 -4032.640381
v  10486.250000 -2465.773438 -3445.114502
v  10486.250000 -1990.296875 -3445.114502
v  10486.250000 -1990.296875 -2631.100830
v  10486.250000 -2465.773438 -2631.100830
v  10973.375000 -2465.773438 -3445.114502
v  10973.375000 -2465.773438 -2631.100830
v  10973.375000 -1990.296875 -2631.100830
v  10973.375000 -1990.296875 -3445.114502
v  10514.609375 -2492.386719 -2745.248779
v  10514.609375 -1986.527344 -2745.248779
v  10514.609375 -1986.527344 -2501.089600
v  10514.609375 -2492.386719 -2501.089600
v  11001.890625 -2492.386719 -2745.248779
v  11001.890625 -2492.386719 -2501.089600
v  11001.890625 -1986.527344 -2501.089600
v  11001.890625 -1986.527344 -2745.248779

vt  0.000000 0.000000 0.000000
vt  0.000000 0.000000 0.000000
vt  0.000000 0.000000 0.000000
vt  0.000000 0.000000 0.000000
vt  0.000000 0.000000 0.000000
vt  0.000000 0.000000 0.000000
vt  0.000000 0.000000 0.000000
vt  0.000000 0.000000 0.000000
vt  0.000000 0.000000 0.000000
vt  0.000000 0.000000 0.000000
vt  0.000000 0.000000 0.000000
vt  0.000000 0.000000 0.000000
vt  0.000000 0.000000 0.000000
vt  0.000000 0.000000 0.000000
vt  0.000000 0.000000 0.000000
vt  0.000000 0.000000 0.000000
vt  0.000000 0.000000 0.000000
vt  0.000000 0.000000 0.000000
vt  0.000000 0.000000 0.000000
vt  0.000000 0.000000 0.000000
vt  0.000000 0.000000 0.000000
vt  0.000000 0.000000 0.000000
vt  0.000000 0.000000 0.000000
vt  0.000000 0.000000 0.000000
vt  0.000000 0.000000 0.000000
vt  0.000000 0.000000 0.000000
vt  0.000000 0.000000 0.000000
vt  0.000000 0.000000 0.000000
vt  0.000000 0.000000 0.000000
vt  0.000000 0.000000 0.000000
vt  0.000000 0.000000 0.000000
vt  0.000000 0.000000 0.000000
vt  0.000000 0.000000 0.000000
vt  0.000000 0.000000 0.000000
vt  0.000000 0.000000 0.000000
vt  0.000000 0.000000 0.000000
vt  0.000000 0.000000 0.000000
vt  0.000000 0.000000 0.000000
vt  0.000000 0.000000 0.000000
vt  0.000000 0.000000 0.000000
vt  0.000000 0.000000 0.000000
vt  0.000000 0.000000 0.000000
vt  0.000000 0.000000 0.000000
vt  0.000000 0.000000 0.000000
vt  0.000000 0.000000 0.000000
vt  0.000000 0.000000 0.000000
vt  0.000000 0.000000 0.000000
vt  0.000000 0.000000 0.000000
vt  0.000000 0.000000 0.000000
vt  0.000000 0.000000 0.000000
vt  0.000000 0.000000 0.000000
vt  0.000000 0.000000 0.000000
vt  0.000000 0.000000 0.000000
vt  0.000000 0.000000 0.000000
vt  0.000000 0.000000 0.000000
vt  0.000000 0.000000 0.000000
vt  0.000000 0.000000 0.000000
vt  0.000000 0.000000 0.000000
vt  0.000000 0.000000 0.000000
vt  0.000000 0.000000 0.000000
vt  0.000000 0.000000 0.000000
vt  0.000000 0.000000 0.000000
vt  0.000000 0.000000 0.000000
vt  0.000000 0.000000 0.000000

vn  0.577350 0.577350 0.577350
vn  0.408248 -0.816497 0.408248
vn  0.816497 -0.408248 -0.408248
vn  0.408248 0.408248 -0.816497
vn  -0.816497 0.408248 0.408248
vn  -0.408248 0.816497 -0.408248
vn  -0.577350 -0.577350 -0.577350
vn  -0.408248 -0.408248 0.816497
vn  0.577350 0.577350 0.577350
vn  0.408248 -0.816497 0.408248
vn  0.816497 -0.408248 -0.408248
vn  0.408248 0.408248 -0.816497
vn  -0.816497 0.408248 0.408248
vn  -0.408248 0.816497 -0.408248
vn  -0.577350 -0.577350 -0.577350
vn  -0.408248 -0.408248 0.816497
vn  0.577350 0.577350 0.577350
vn  0.408248 -0.816497 0.408248
vn  0.816497 -0.408248 -0.408248
vn  0.408248 0.408248 -0.816497
vn  -0.816497 0.408248 0.408248
vn  -0.408248 0.816497 -0.408248
vn  -0.577350 -0.577350 -0.577350
vn  -0.408248 -0.408248 0.816497
vn  0.577350 0.577350 0.577350
vn  0.408248 -0.816497 0.408248
vn  0.816497 -0.408248 -0.408248
vn  0.408248 0.408248 -0.816497
vn  -0.816497 0.408248 0.408248
vn  -0.408248 0.816497 -0.408248
vn  -0.577350 -0.577350 -0.577350
vn  -0.408248 -0.408248 0.816497
vn  0.577350 0.577350 0.577350
vn  0.408248 -0.816497 0.408248
vn  0.816497 -0.408248 -0.408248
vn  0.408248 0.408248 -0.816497
vn  -0.816497 0.408248 0.408248
vn  -0.408248 0.816497 -0.408248
vn  -0.577350 -0.577350 -0.577350
vn  -0.408248 -0.408248 0.816497
vn  0.577350 0.577350 0.577350
vn  0.408248 -0.816497 0.408248
vn  0.816497 -0.408248 -0.408248
vn  0.408248 0.408248 -0.816497
vn  -0.816497 0.408248 0.408248
vn  -0.408248 0.816497 -0.408248
vn  -0.577350 -0.577350 -0.577350
vn  -0.408248 -0.408248 0.816497
vn  0.577350 0.577350 0.577350
vn  0.408248 -0.816497 0.408248
vn  0.816497 -0.408248 -0.408248
vn  0.408248 0.408248 -0.816497
vn  -0.816497 0.408248 0.408248
vn  -0.408248 0.816497 -0.408248
vn  -0.577350 -0.577350 -0.577350
vn  -0.408248 -0.408248 0.816497
vn  0.577350 0.577350 0.577350
vn  0.408248 -0.816497 0.408248
vn  0.816497 -0.408248 -0.408248
vn  0.408248 0.408248 -0.816497
vn  -0.816497 0.408248 0.408248
vn  -0.408248 0.816497 -0.408248
vn  -0.577350 -0.577350 -0.577350
vn  -0.408248 -0.408248 0.816497

g Mesh_0717.rip
usemtl Tex_2563_3.dds
f  1/1/1 2/2/2 3/3/3
f  1/1/1 3/3/3 4/4/4
f  5/5/5 6/6/6 7/7/7
f  5/5/5 7/7/7 8/8/8
f  1/1/1 4/4/4 6/6/6
f  1/1/1 6/6/6 5/5/5
f  2/2/2 8/8/8 7/7/7
f  2/2/2 7/7/7 3/3/3
f  1/1/1 5/5/5 8/8/8
f  1/1/1 8/8/8 2/2/2
f  4/4/4 3/3/3 7/7/7
f  4/4/4 7/7/7 6/6/6
f  9/9/9 10/10/10 11/11/11
f  9/9/9 11/11/11 12/12/12
f  13/13/13 14/14/14 15/15/15
f  13/13/13 15/15/15 16/16/16
f  9/9/9 12/12/12 14/14/14
f  9/9/9 14/14/14 13/13/13
f  10/10/10 16/16/16 15/15/15
f  10/10/10 15/15/15 11/11/11
f  9/9/9 13/13/13 16/16/16
f  9/9/9 16/16/16 10/10/10
f  12/12/12 11/11/11 15/15/15
f  12/12/12 15/15/15 14/14/14
f  17/17/17 18/18/18 19/19/19
f  17/17/17 19/19/19 20/20/20
f  21/21/21 22/22/22 23/23/23
f  21/21/21 23/23/23 24/24/24
f  17/17/17 20/20/20 22/22/22
f  17/17/17 22/22/22 21/21/21
f  18/18/18 24/24/24 23/23/23
f  18/18/18 23/23/23 19/19/19
f  17/17/17 21/21/21 24/24/24
f  17/17/17 24/24/24 18/18/18
f  20/20/20 19/19/19 23/23/23
f  20/20/20 23/23/23 22/22/22
f  25/25/25 26/26/26 27/27/27
f  25/25/25 27/27/27 28/28/28
f  29/29/29 30/30/30 31/31/31
f  29/29/29 31/31/31 32/32/32
f  25/25/25 28/28/28 30/30/30
f  25/25/25 30/30/30 29/29/29
f  26/26/26 32/32/32 31/31/31
f  26/26/26 31/31/31 27/27/27
f  25/25/25 29/29/29 32/32/32
f  25/25/25 32/32/32 26/26/26
f  28/28/28 27/27/27 31/31/31
f  28/28/28 31/31/31 30/30/30
f  33/33/33 34/34/34 35/35/35
f  33/33/33 35/35/35 36/36/36
f  37/37/37 38/38/38 39/39/39
f  37/37/37 39/39/39 40/40/40
f  33/33/33 36/36/36 38/38/38
f  33/33/33 38/38/38 37/37/37
f  34/34/34 40/40/40 39/39/39
f  34/34/34 39/39/39 35/35/35
f  33/33/33 37/37/37 40/40/40
f  33/33/33 40/40/40 34/34/34
f  36/36/36 35/35/35 39/39/39
f  36/36/36 39/39/39 38/38/38
f  41/41/41 42/42/42 43/43/43
f  41/41/41 43/43/43 44/44/44
f  45/45/45 46/46/46 47/47/47
f  45/45/45 47/47/47 48/48/48
f  41/41/41 44/44/44 46/46/46
f  41/41/41 46/46/46 45/45/45
f  42/42/42 48/48/48 47/47/47
f  42/42/42 47/47/47 43/43/43
f  41/41/41 45/45/45 48/48/48
f  41/41/41 48/48/48 42/42/42
f  44/44/44 43/43/43 47/47/47
f  44/44/44 47/47/47 46/46/46
f  49/49/49 50/50/50 51/51/51
f  49/49/49 51/51/51 52/52/52
f  53/53/53 54/54/54 55/55/55
f  53/53/53 55/55/55 56/56/56
f  49/49/49 52/52/52 54/54/54
f  49/49/49 54/54/54 53/53/53
f  50/50/50 56/56/56 55/55/55
f  50/50/50 55/55/55 51/51/51
f  49/49/49 53/53/53 56/56/56
f  49/49/49 56/56/56 50/50/50
f  52/52/52 51/51/51 55/55/55
f  52/52/52 55/55/55 54/54/54
f  57/57/57 58/58/58 59/59/59
f  57/57/57 59/59/59 60/60/60
f  61/61/61 62/62/62 63/63/63
f  61/61/61 63/63/63 64/64/64
f  57/57/57 60/60/60 62/62/62
f  57/57/57 62/62/62 61/61/61
f  58/58/58 64/64/64 63/63/63
f  58/58/58 63/63/63 59/59/59
f  57/57/57 61/61/61 64/64/64
f  57/57/57 64/64/64 58/58/58
f  60/60/60 59/59/59 63/63/63
f  60/60/60 63/63/63 62/62/62

g
