# Noesis .obj export.
#
mtllib unused.mtl
g
v  26731.718750 640.371094 249.205322
v  26731.718750 4478.824219 249.205322
v  26731.718750 4478.824219 762.820557
v  26731.718750 640.371094 762.820557
v  30633.062500 640.371094 249.205322
v  30633.062500 640.371094 762.820557
v  30633.062500 4478.824219 762.820557
v  30633.062500 4478.824219 249.205322
v  24934.328125 -239.121094 249.204102
v  24934.328125 3267.105469 249.204102
v  24934.328125 3267.105469 762.820313
v  24934.328125 -239.121094 762.820313
v  28167.015625 -239.121094 249.204102
v  28167.015625 -239.121094 762.820313
v  28167.015625 3267.105469 762.820313
v  28167.015625 3267.105469 249.204102
v  6646.812500 -11873.328125 -3123.680908
v  6646.812500 -5163.468750 -3123.680908
v  6646.812500 -5163.468750 -626.675049
v  6646.812500 -11873.328125 -626.675049
v  14447.812500 -11873.328125 -3123.680908
v  14447.812500 -11873.328125 -626.675049
v  14447.812500 -5163.468750 -626.675049
v  14447.812500 -5163.468750 -3123.680908
v  14445.828125 1542.386719 -2921.918701
v  14445.828125 8252.246094 -2921.918701
v  14445.828125 8252.246094 -156.737061
v  14445.828125 1542.386719 -156.737061
v  22246.828125 1542.386719 -2921.918701
v  22246.828125 1542.386719 -156.737061
v  22246.828125 8252.246094 -156.737061
v  22246.828125 8252.246094 -2921.918701
v  22244.843750 1542.386719 -3224.322021
v  22244.843750 8252.246094 -3224.322021
v  22244.843750 8252.246094 475.811768
v  22244.843750 1542.386719 475.811768
v  30045.843750 1542.386719 -3224.322021
v  30045.843750 1542.386719 475.811768
v  30045.843750 8252.246094 475.811768
v  30045.843750 8252.246094 -3224.322021
v  14445.828125 -11873.328125 -2466.152344
v  14445.828125 -5163.468750 -2466.152344
v  14445.828125 -5163.468750 149.389282
v  14445.828125 -11873.328125 149.389282
v  22246.828125 -11873.328125 -2466.152344
v  22246.828125 -11873.328125 149.389282
v  22246.828125 -5163.468750 149.389282
v  22246.828125 -5163.468750 -2466.152344
v  22244.843750 -11873.328125 -2556.705322
v  22244.843750 -5163.468750 -2556.705322
v  22244.843750 -5163.468750 712.581787
v  22244.843750 -11873.328125 712.581787
v  30045.843750 -11873.328125 -2556.705322
v  30045.843750 -11873.328125 712.581787
v  30045.843750 -5163.468750 712.581787
v  30045.843750 -5163.468750 -2556.705322
v  14445.828125 -5165.468750 -2237.308350
v  14445.828125 1544.390625 -2237.308350
v  14445.828125 1544.390625 -245.728271
v  14445.828125 -5165.468750 -245.728271
v  22246.828125 -5165.468750 -2237.308350
v  22246.828125 -5165.468750 -245.728271
v  22246.828125 1544.390625 -245.728271
v  22246.828125 1544.390625 -2237.308350

vt  0.000000 0.000000 0.000000
vt  0.000000 0.000000 0.000000
vt  0.000000 0.000000 0.000000
vt  0.000000 0.000000 0.000000
vt  0.000000 0.000000 0.000000
vt  0.000000 0.000000 0.000000
vt  0.000000 0.000000 0.000000
vt  0.000000 0.000000 0.000000
vt  0.000000 0.000000 0.000000
vt  0.000000 0.000000 0.000000
vt  0.000000 0.000000 0.000000
vt  0.000000 0.000000 0.000000
vt  0.000000 0.000000 0.000000
vt  0.000000 0.000000 0.000000
vt  0.000000 0.000000 0.000000
vt  0.000000 0.000000 0.000000
vt  0.000000 0.000000 0.000000
vt  0.000000 0.000000 0.000000
vt  0.000000 0.000000 0.000000
vt  0.000000 0.000000 0.000000
vt  0.000000 0.000000 0.000000
vt  0.000000 0.000000 0.000000
vt  0.000000 0.000000 0.000000
vt  0.000000 0.000000 0.000000
vt  0.000000 0.000000 0.000000
vt  0.000000 0.000000 0.000000
vt  0.000000 0.000000 0.000000
vt  0.000000 0.000000 0.000000
vt  0.000000 0.000000 0.000000
vt  0.000000 0.000000 0.000000
vt  0.000000 0.000000 0.000000
vt  0.000000 0.000000 0.000000
vt  0.000000 0.000000 0.000000
vt  0.000000 0.000000 0.000000
vt  0.000000 0.000000 0.000000
vt  0.000000 0.000000 0.000000
vt  0.000000 0.000000 0.000000
vt  0.000000 0.000000 0.000000
vt  0.000000 0.000000 0.000000
vt  0.000000 0.000000 0.000000
vt  0.000000 0.000000 0.000000
vt  0.000000 0.000000 0.000000
vt  0.000000 0.000000 0.000000
vt  0.000000 0.000000 0.000000
vt  0.000000 0.000000 0.000000
vt  0.000000 0.000000 0.000000
vt  0.000000 0.000000 0.000000
vt  0.000000 0.000000 0.000000
vt  0.000000 0.000000 0.000000
vt  0.000000 0.000000 0.000000
vt  0.000000 0.000000 0.000000
vt  0.000000 0.000000 0.000000
vt  0.000000 0.000000 0.000000
vt  0.000000 0.000000 0.000000
vt  0.000000 0.000000 0.000000
vt  0.000000 0.000000 0.000000
vt  0.000000 0.000000 0.000000
vt  0.000000 0.000000 0.000000
vt  0.000000 0.000000 0.000000
vt  0.000000 0.000000 0.000000
vt  0.000000 0.000000 0.000000
vt  0.000000 0.000000 0.000000
vt  0.000000 0.000000 0.000000
vt  0.000000 0.000000 0.000000

vn  0.577350 0.577350 0.577350
vn  0.408248 -0.816497 0.408248
vn  0.816497 -0.408248 -0.408248
vn  0.408248 0.408248 -0.816497
vn  -0.816497 0.408248 0.408248
vn  -0.408248 0.816497 -0.408248
vn  -0.577350 -0.577350 -0.577350
vn  -0.408248 -0.408248 0.816497
vn  0.577350 0.577350 0.577350
vn  0.408248 -0.816497 0.408248
vn  0.816497 -0.408248 -0.408248
vn  0.408248 0.408248 -0.816497
vn  -0.816497 0.408248 0.408248
vn  -0.408248 0.816497 -0.408248
vn  -0.577350 -0.577350 -0.577350
vn  -0.408248 -0.408248 0.816497
vn  0.577350 0.577350 0.577350
vn  0.408248 -0.816497 0.408248
vn  0.816497 -0.408248 -0.408248
vn  0.408248 0.408248 -0.816497
vn  -0.816497 0.408248 0.408248
vn  -0.408248 0.816497 -0.408248
vn  -0.577350 -0.577350 -0.577350
vn  -0.408248 -0.408248 0.816497
vn  0.577350 0.577350 0.577350
vn  0.408248 -0.816497 0.408248
vn  0.816497 -0.408248 -0.408248
vn  0.408248 0.408248 -0.816497
vn  -0.816497 0.408248 0.408248
vn  -0.408248 0.816497 -0.408248
vn  -0.577350 -0.577350 -0.577350
vn  -0.408248 -0.408248 0.816497
vn  0.577350 0.577350 0.577350
vn  0.408248 -0.816497 0.408248
vn  0.816497 -0.408248 -0.408248
vn  0.408248 0.408248 -0.816497
vn  -0.816497 0.408248 0.408248
vn  -0.408248 0.816497 -0.408248
vn  -0.577350 -0.577350 -0.577350
vn  -0.408248 -0.408248 0.816497
vn  0.577350 0.577350 0.577350
vn  0.408248 -0.816497 0.408248
vn  0.816497 -0.408248 -0.408248
vn  0.408248 0.408248 -0.816497
vn  -0.816497 0.408248 0.408248
vn  -0.408248 0.816497 -0.408248
vn  -0.577350 -0.577350 -0.577350
vn  -0.408248 -0.408248 0.816497
vn  0.577350 0.577350 0.577350
vn  0.408248 -0.816497 0.408248
vn  0.816497 -0.408248 -0.408248
vn  0.408248 0.408248 -0.816497
vn  -0.816497 0.408248 0.408248
vn  -0.408248 0.816497 -0.408248
vn  -0.577350 -0.577350 -0.577350
vn  -0.408248 -0.408248 0.816497
vn  0.577350 0.577350 0.577350
vn  0.408248 -0.816497 0.408248
vn  0.816497 -0.408248 -0.408248
vn  0.408248 0.408248 -0.816497
vn  -0.816497 0.408248 0.408248
vn  -0.408248 0.816497 -0.408248
vn  -0.577350 -0.577350 -0.577350
vn  -0.408248 -0.408248 0.816497

g Mesh_0715.rip
usemtl Tex_2563_3.dds
f  1/1/1 2/2/2 3/3/3
f  1/1/1 3/3/3 4/4/4
f  5/5/5 6/6/6 7/7/7
f  5/5/5 7/7/7 8/8/8
f  1/1/1 4/4/4 6/6/6
f  1/1/1 6/6/6 5/5/5
f  2/2/2 8/8/8 7/7/7
f  2/2/2 7/7/7 3/3/3
f  1/1/1 5/5/5 8/8/8
f  1/1/1 8/8/8 2/2/2
f  4/4/4 3/3/3 7/7/7
f  4/4/4 7/7/7 6/6/6
f  9/9/9 10/10/10 11/11/11
f  9/9/9 11/11/11 12/12/12
f  13/13/13 14/14/14 15/15/15
f  13/13/13 15/15/15 16/16/16
f  9/9/9 12/12/12 14/14/14
f  9/9/9 14/14/14 13/13/13
f  10/10/10 16/16/16 15/15/15
f  10/10/10 15/15/15 11/11/11
f  9/9/9 13/13/13 16/16/16
f  9/9/9 16/16/16 10/10/10
f  12/12/12 11/11/11 15/15/15
f  12/12/12 15/15/15 14/14/14
f  17/17/17 18/18/18 19/19/19
f  17/17/17 19/19/19 20/20/20
f  21/21/21 22/22/22 23/23/23
f  21/21/21 23/23/23 24/24/24
f  17/17/17 20/20/20 22/22/22
f  17/17/17 22/22/22 21/21/21
f  18/18/18 24/24/24 23/23/23
f  18/18/18 23/23/23 19/19/19
f  17/17/17 21/21/21 24/24/24
f  17/17/17 24/24/24 18/18/18
f  20/20/20 19/19/19 23/23/23
f  20/20/20 23/23/23 22/22/22
f  25/25/25 26/26/26 27/27/27
f  25/25/25 27/27/27 28/28/28
f  29/29/29 30/30/30 31/31/31
f  29/29/29 31/31/31 32/32/32
f  25/25/25 28/28/28 30/30/30
f  25/25/25 30/30/30 29/29/29
f  26/26/26 32/32/32 31/31/31
f  26/26/26 31/31/31 27/27/27
f  25/25/25 29/29/29 32/32/32
f  25/25/25 32/32/32 26/26/26
f  28/28/28 27/27/27 31/31/31
f  28/28/28 31/31/31 30/30/30
f  33/33/33 34/34/34 35/35/35
f  33/33/33 35/35/35 36/36/36
f  37/37/37 38/38/38 39/39/39
f  37/37/37 39/39/39 40/40/40
f  33/33/33 36/36/36 38/38/38
f  33/33/33 38/38/38 37/37/37
f  34/34/34 40/40/40 39/39/39
f  34/34/34 39/39/39 35/35/35
f  33/33/33 37/37/37 40/40/40
f  33/33/33 40/40/40 34/34/34
f  36/36/36 35/35/35 39/39/39
f  36/36/36 39/39/39 38/38/38
f  41/41/41 42/42/42 43/43/43
f  41/41/41 43/43/43 44/44/44
f  45/45/45 46/46/46 47/47/47
f  45/45/45 47/47/47 48/48/48
f  41/41/41 44/44/44 46/46/46
f  41/41/41 46/46/46 45/45/45
f  42/42/42 48/48/48 47/47/47
f  42/42/42 47/47/47 43/43/43
f  41/41/41 45/45/45 48/48/48
f  41/41/41 48/48/48 42/42/42
f  44/44/44 43/43/43 47/47/47
f  44/44/44 47/47/47 46/46/46
f  49/49/49 50/50/50 51/51/51
f  49/49/49 51/51/51 52/52/52
f  53/53/53 54/54/54 55/55/55
f  53/53/53 55/55/55 56/56/56
f  49/49/49 52/52/52 54/54/54
f  49/49/49 54/54/54 53/53/53
f  50/50/50 56/56/56 55/55/55
f  50/50/50 55/55/55 51/51/51
f  49/49/49 53/53/53 56/56/56
f  49/49/49 56/56/56 50/50/50
f  52/52/52 51/51/51 55/55/55
f  52/52/52 55/55/55 54/54/54
f  57/57/57 58/58/58 59/59/59
f  57/57/57 59/59/59 60/60/60
f  61/61/61 62/62/62 63/63/63
f  61/61/61 63/63/63 64/64/64
f  57/57/57 60/60/60 62/62/62
f  57/57/57 62/62/62 61/61/61
f  58/58/58 64/64/64 63/63/63
f  58/58/58 63/63/63 59/59/59
f  57/57/57 61/61/61 64/64/64
f  57/57/57 64/64/64 58/58/58
f  60/60/60 59/59/59 63/63/63
f  60/60/60 63/63/63 62/62/62

g
