# Noesis .obj export.
#
mtllib unused.mtl
g
v  50.000000 -50.000000 -0.000000
v  -50.000000 -50.000000 0.000000
v  50.000000 50.000000 -0.000000
v  -50.000000 50.000000 0.000000

vt  0.000000 0.000000 0.000000
vt  0.000000 0.000000 0.000000
vt  0.000000 0.000000 0.000000
vt  0.000000 0.000000 0.000000

vn  -0.000000 0.000000 -1.000000
vn  -0.000000 0.000000 -1.000000
vn  -0.000000 0.000000 -1.000000
vn  -0.000000 0.000000 -1.000000

g Mesh_0910.rip
usemtl Tex_2562_2.dds
f  1/1/1 2/2/2 3/3/3
f  3/3/3 2/2/2 4/4/4

g
