# Noesis .obj export.
#
mtllib unused.mtl
g
v  -46934.023438 -8577.968750 120614.718750
v  -54704.347656 -0.000000 116981.046875
v  -62474.671875 -8577.968750 113347.382813
v  -46934.023438 8577.968750 120614.718750
v  -62474.671875 8577.968750 113347.382813

vt  0.498039 0.709804 0.000000
vt  0.498039 0.709804 0.000000
vt  0.498039 0.709804 0.000000
vt  0.498039 0.709804 0.000000
vt  0.498039 0.709804 0.000000

vn  0.498039 0.000000 0.498039
vn  0.498039 0.000000 0.498039
vn  0.498039 0.000000 0.498039
vn  0.498039 0.000000 0.498039
vn  0.498039 0.000000 0.498039

g Mesh_0310.rip
usemtl Tex_0704_2.dds
f  1/1/1 2/2/2 3/3/3
f  4/4/4 2/2/2 1/1/1
f  2/2/2 5/5/5 3/3/3
f  4/4/4 5/5/5 2/2/2

g
