# Noesis .obj export.
#
mtllib unused.mtl
g
v  1418.649902 1859.479370 758.069641
v  1439.477173 2278.903320 827.271423
v  -7866.977539 7842.938965 -30094.783203
v  -7887.804688 7423.515137 -30163.984375
v  998.159180 1859.479370 884.622559
v  -8308.295898 7423.515137 -30037.431641
v  -8287.468750 7842.938965 -29968.230469
v  1018.986511 2278.903320 953.824341

vt  0.000000 0.000000 0.000000
vt  0.000000 0.000000 0.000000
vt  0.000000 0.000000 0.000000
vt  0.000000 0.000000 0.000000
vt  0.000000 0.000000 0.000000
vt  0.000000 0.000000 0.000000
vt  0.000000 0.000000 0.000000
vt  0.000000 0.000000 0.000000

vn  -0.688575 0.667001 -0.284561
vn  -0.546830 -0.735319 -0.400354
vn  -0.685885 -0.471640 0.554181
vn  -0.139056 0.263679 0.954535
vn  0.685885 0.471641 -0.554181
vn  0.546829 0.735319 0.400354
vn  0.688575 -0.667001 0.284561
vn  0.139055 -0.263678 -0.954535

g Mesh_0571.rip
usemtl Tex_2563_3.dds
f  1/1/1 2/2/2 3/3/3
f  1/1/1 3/3/3 4/4/4
f  5/5/5 6/6/6 7/7/7
f  5/5/5 7/7/7 8/8/8
f  1/1/1 4/4/4 6/6/6
f  1/1/1 6/6/6 5/5/5
f  2/2/2 8/8/8 7/7/7
f  2/2/2 7/7/7 3/3/3
f  1/1/1 5/5/5 8/8/8
f  1/1/1 8/8/8 2/2/2
f  4/4/4 3/3/3 7/7/7
f  4/4/4 7/7/7 6/6/6

g
