# Noesis .obj export.
#
mtllib unused.mtl
g
v  -1.#QNAN0 -1.#QNAN0 -1.#QNAN0
v  -1.#QNAN0 -1.#QNAN0 -1.#QNAN0
v  -1.#QNAN0 -1.#QNAN0 -1.#QNAN0
v  -1.#QNAN0 -272493300881447240000000000000000000000.000000 -295090521610754070000000000000000000000.000000
v  -172799680016858270000000000000000000000.000000 -172799680016858270000000000000000000000.000000 -172799680016858270000000000000000000000.000000
v  -174128928295052790000000000000000000000.000000 -174128928295052790000000000000000000000.000000 -174128928295052790000000000000000000000.000000
v  -174128928295052790000000000000000000000.000000 -174128928295052790000000000000000000000.000000 -174128928295052790000000000000000000000.000000
v  -174128928295052790000000000000000000000.000000 -174128928295052790000000000000000000000.000000 -174128928295052790000000000000000000000.000000
v  -174128928295052790000000000000000000000.000000 -180775169686025390000000000000000000000.000000 -180775169686025390000000000000000000000.000000
v  -180775169686025390000000000000000000000.000000 -180775169686025390000000000000000000000.000000 -180775169686025390000000000000000000000.000000
v  -180775169686025390000000000000000000000.000000 -180775169686025390000000000000000000000.000000 -180775169686025390000000000000000000000.000000
v  -180775169686025390000000000000000000000.000000 -180775169686025390000000000000000000000.000000 -180775169686025390000000000000000000000.000000
v  -180775169686025390000000000000000000000.000000 -180775169686025390000000000000000000000.000000 -180775169686025390000000000000000000000.000000
v  -180775169686025390000000000000000000000.000000 -180775169686025390000000000000000000000.000000 -180775169686025390000000000000000000000.000000
v  -180775169686025390000000000000000000000.000000 -180775169686025390000000000000000000000.000000 -180775169686025390000000000000000000000.000000
v  -180775169686025390000000000000000000000.000000 -180775169686025390000000000000000000000.000000 -180775169686025390000000000000000000000.000000
v  -180775169686025390000000000000000000000.000000 -180775169686025390000000000000000000000.000000 -180775169686025390000000000000000000000.000000
v  -180775169686025390000000000000000000000.000000 -180775169686025390000000000000000000000.000000 -180775169686025390000000000000000000000.000000
v  -180775169686025390000000000000000000000.000000 -199384645580748660000000000000000000000.000000 -297749018167143110000000000000000000000.000000
v  -297749018167143110000000000000000000000.000000 -297749018167143110000000000000000000000.000000 -297749018167143110000000000000000000000.000000
v  -297749018167143110000000000000000000000.000000 -297749018167143110000000000000000000000.000000 -297749018167143110000000000000000000000.000000
v  -297749018167143110000000000000000000000.000000 -297749018167143110000000000000000000000.000000 -297749018167143110000000000000000000000.000000
v  -297749018167143110000000000000000000000.000000 -297749018167143110000000000000000000000.000000 -297749018167143110000000000000000000000.000000
v  -297749018167143110000000000000000000000.000000 -297749018167143110000000000000000000000.000000 -297749018167143110000000000000000000000.000000

vt  1.000000 0.011765 0.000000
vt  1.000000 0.011765 0.000000
vt  1.000000 0.011765 0.000000
vt  1.000000 0.015686 0.000000
vt  1.000000 0.309804 0.000000
vt  1.000000 0.109804 0.000000
vt  1.000000 0.250980 0.000000
vt  1.000000 0.250980 0.000000
vt  1.000000 0.250980 0.000000
vt  1.000000 0.250980 0.000000
vt  1.000000 0.250980 0.000000
vt  1.000000 0.309804 0.000000
vt  1.000000 0.435294 0.000000
vt  1.000000 0.505882 0.000000
vt  1.000000 0.525490 0.000000
vt  1.000000 0.505882 0.000000
vt  1.000000 0.019608 0.000000
vt  1.000000 0.019608 0.000000
vt  1.000000 0.019608 0.000000
vt  1.000000 0.019608 0.000000
vt  1.000000 0.360784 0.000000
vt  1.000000 0.360784 0.000000
vt  1.000000 0.333333 0.000000
vt  1.000000 0.000000 0.000000

vn  0.125490 0.000000 0.125490
vn  0.125490 0.000000 0.125490
vn  0.125490 0.000000 0.125490
vn  0.435294 0.000000 0.435294
vn  0.670588 0.000000 0.670588
vn  0.282353 0.000000 0.282353
vn  0.192157 0.000000 0.192157
vn  0.188235 0.000000 0.188235
vn  0.192157 0.000000 0.192157
vn  0.000000 0.000000 0.000000
vn  0.000000 0.000000 0.000000
vn  0.000000 0.000000 0.000000
vn  0.000000 0.000000 0.000000
vn  0.298039 0.000000 0.298039
vn  0.298039 0.000000 0.298039
vn  0.298039 0.000000 0.298039
vn  0.298039 0.000000 0.298039
vn  0.349020 0.000000 0.349020
vn  0.498039 0.000000 0.498039
vn  0.768627 0.047059 0.768627
vn  1.000000 1.000000 1.000000
vn  1.000000 0.964706 1.000000
vn  0.650980 0.035294 0.650980
vn  0.419608 0.000000 0.419608

g Mesh_0454.rip
usemtl Tex_4529_0.dds
f  1/1/1 2/2/2 3/3/3
f  4/4/4 3/3/3 2/2/2
f  5/5/5 6/6/6 7/7/7
f  7/7/7 6/6/6 8/8/8
f  9/9/9 10/10/10 11/11/11
f  11/11/11 10/10/10 12/12/12
f  13/13/13 14/14/14 15/15/15
f  16/16/16 15/15/15 14/14/14
f  17/17/17 18/18/18 19/19/19
f  19/19/19 18/18/18 20/20/20
f  21/21/21 22/22/22 23/23/23
f  23/23/23 22/22/22 24/24/24

g
