# Noesis .obj export.
#
mtllib unused.mtl
g
v  1727.285034 656.978699 -25.953583
v  1727.285034 802.411926 -25.953583
v  1727.285034 802.411926 109.194794
v  1727.285034 656.978699 109.194794
v  1957.902466 656.978699 -25.953583
v  1957.902466 656.978699 109.194794
v  1957.902466 802.411926 109.194794
v  1957.902466 802.411926 -25.953583

vt  0.000000 0.000000 0.000000
vt  0.000000 0.000000 0.000000
vt  0.000000 0.000000 0.000000
vt  0.000000 0.000000 0.000000
vt  0.000000 0.000000 0.000000
vt  0.000000 0.000000 0.000000
vt  0.000000 0.000000 0.000000
vt  0.000000 0.000000 0.000000

vn  0.577350 0.577350 0.577350
vn  0.408248 -0.816497 0.408248
vn  0.816497 -0.408248 -0.408248
vn  0.408248 0.408248 -0.816497
vn  -0.816497 0.408248 0.408248
vn  -0.408248 0.816497 -0.408248
vn  -0.577350 -0.577350 -0.577350
vn  -0.408248 -0.408248 0.816497

g Mesh_0694.rip
usemtl Tex_2563_3.dds
f  1/1/1 2/2/2 3/3/3
f  1/1/1 3/3/3 4/4/4
f  5/5/5 6/6/6 7/7/7
f  5/5/5 7/7/7 8/8/8
f  1/1/1 4/4/4 6/6/6
f  1/1/1 6/6/6 5/5/5
f  2/2/2 8/8/8 7/7/7
f  2/2/2 7/7/7 3/3/3
f  1/1/1 5/5/5 8/8/8
f  1/1/1 8/8/8 2/2/2
f  4/4/4 3/3/3 7/7/7
f  4/4/4 7/7/7 6/6/6

g
