# Noesis .obj export.
#
mtllib unused.mtl
g
v  11410.296875 -3587.839844 -4795.834961
v  11410.296875 411.816406 -4795.834961
v  11410.296875 411.816406 -2457.533447
v  11410.296875 -3587.839844 -2457.533447
v  16327.078125 -3587.839844 -4795.834961
v  16327.078125 -3587.839844 -2457.533447
v  16327.078125 411.816406 -2457.533447
v  16327.078125 411.816406 -4795.834961

vt  0.000000 0.000000 0.000000
vt  0.000000 0.000000 0.000000
vt  0.000000 0.000000 0.000000
vt  0.000000 0.000000 0.000000
vt  0.000000 0.000000 0.000000
vt  0.000000 0.000000 0.000000
vt  0.000000 0.000000 0.000000
vt  0.000000 0.000000 0.000000

vn  0.577350 0.577350 0.577350
vn  0.408248 -0.816497 0.408248
vn  0.816497 -0.408248 -0.408248
vn  0.408248 0.408248 -0.816497
vn  -0.816497 0.408248 0.408248
vn  -0.408248 0.816497 -0.408248
vn  -0.577350 -0.577350 -0.577350
vn  -0.408248 -0.408248 0.816497

g Mesh_0618.rip
usemtl Tex_2563_3.dds
f  1/1/1 2/2/2 3/3/3
f  1/1/1 3/3/3 4/4/4
f  5/5/5 6/6/6 7/7/7
f  5/5/5 7/7/7 8/8/8
f  1/1/1 4/4/4 6/6/6
f  1/1/1 6/6/6 5/5/5
f  2/2/2 8/8/8 7/7/7
f  2/2/2 7/7/7 3/3/3
f  1/1/1 5/5/5 8/8/8
f  1/1/1 8/8/8 2/2/2
f  4/4/4 3/3/3 7/7/7
f  4/4/4 7/7/7 6/6/6

g
