# Noesis .obj export.
#
mtllib unused.mtl
g
v  17538.703125 11194.687500 -1976.910400
v  17538.703125 15545.761719 -1976.910400
v  17538.703125 15545.761719 788.910889
v  17538.703125 11194.687500 788.910889
v  22081.890625 11194.687500 -1976.910400
v  22081.890625 11194.687500 788.910889
v  22081.890625 15545.761719 788.910889
v  22081.890625 15545.761719 -1976.910400
v  8456.296875 15543.761719 -262.465576
v  8456.296875 19894.835938 -262.465576
v  8456.296875 19894.835938 794.608643
v  8456.296875 15543.761719 794.608643
v  12999.484375 15543.761719 -262.465576
v  12999.484375 15543.761719 794.608643
v  12999.484375 19894.835938 794.608643
v  12999.484375 19894.835938 -262.465576
v  12997.500000 15543.761719 -1962.549561
v  12997.500000 19894.835938 -1962.549561
v  12997.500000 19894.835938 596.233643
v  12997.500000 15543.761719 596.233643
v  17540.687500 15543.761719 -1962.549561
v  17540.687500 15543.761719 596.233643
v  17540.687500 19894.835938 596.233643
v  17540.687500 19894.835938 -1962.549561
v  11075.578125 1772.433594 -491.814697
v  11075.578125 1806.074219 -491.814697
v  11075.578125 1806.074219 -460.074463
v  11075.578125 1772.433594 -460.074463
v  11122.984375 1772.433594 -491.814697
v  11122.984375 1772.433594 -460.074463
v  11122.984375 1806.074219 -460.074463
v  11122.984375 1806.074219 -491.814697
v  5182.187500 -7900.148438 -1238.311279
v  5182.187500 -5773.375000 -1238.311279
v  5182.187500 -5773.375000 533.350830
v  5182.187500 -7900.148438 533.350830
v  7797.781250 -7900.148438 -1238.311279
v  7797.781250 -7900.148438 533.350830
v  7797.781250 -5773.375000 533.350830
v  7797.781250 -5773.375000 -1238.311279
v  5740.343750 1087.097656 -1504.540771
v  5740.343750 2551.269531 -1504.540771
v  5740.343750 2551.269531 -313.941162
v  5740.343750 1087.097656 -313.941162
v  6687.906250 1087.097656 -1504.540771
v  6687.906250 1087.097656 -313.941162
v  6687.906250 2551.269531 -313.941162
v  6687.906250 2551.269531 -1504.540771
v  10694.468750 901.933594 561.115234
v  10694.468750 1561.472656 561.115234
v  10694.468750 1561.472656 589.861816
v  10694.468750 901.933594 589.861816
v  11355.156250 901.933594 561.115234
v  11355.156250 901.933594 589.861816
v  11355.156250 1561.472656 589.861816
v  11355.156250 1561.472656 561.115234
v  11212.812500 857.136719 561.115234
v  11212.812500 1343.691406 561.115234
v  11212.812500 1343.691406 589.861816
v  11212.812500 857.136719 589.861816
v  11694.781250 857.136719 561.115234
v  11694.781250 857.136719 589.861816
v  11694.781250 1343.691406 589.861816
v  11694.781250 1343.691406 561.115234

vt  0.000000 0.000000 0.000000
vt  0.000000 0.000000 0.000000
vt  0.000000 0.000000 0.000000
vt  0.000000 0.000000 0.000000
vt  0.000000 0.000000 0.000000
vt  0.000000 0.000000 0.000000
vt  0.000000 0.000000 0.000000
vt  0.000000 0.000000 0.000000
vt  0.000000 0.000000 0.000000
vt  0.000000 0.000000 0.000000
vt  0.000000 0.000000 0.000000
vt  0.000000 0.000000 0.000000
vt  0.000000 0.000000 0.000000
vt  0.000000 0.000000 0.000000
vt  0.000000 0.000000 0.000000
vt  0.000000 0.000000 0.000000
vt  0.000000 0.000000 0.000000
vt  0.000000 0.000000 0.000000
vt  0.000000 0.000000 0.000000
vt  0.000000 0.000000 0.000000
vt  0.000000 0.000000 0.000000
vt  0.000000 0.000000 0.000000
vt  0.000000 0.000000 0.000000
vt  0.000000 0.000000 0.000000
vt  0.000000 0.000000 0.000000
vt  0.000000 0.000000 0.000000
vt  0.000000 0.000000 0.000000
vt  0.000000 0.000000 0.000000
vt  0.000000 0.000000 0.000000
vt  0.000000 0.000000 0.000000
vt  0.000000 0.000000 0.000000
vt  0.000000 0.000000 0.000000
vt  0.000000 0.000000 0.000000
vt  0.000000 0.000000 0.000000
vt  0.000000 0.000000 0.000000
vt  0.000000 0.000000 0.000000
vt  0.000000 0.000000 0.000000
vt  0.000000 0.000000 0.000000
vt  0.000000 0.000000 0.000000
vt  0.000000 0.000000 0.000000
vt  0.000000 0.000000 0.000000
vt  0.000000 0.000000 0.000000
vt  0.000000 0.000000 0.000000
vt  0.000000 0.000000 0.000000
vt  0.000000 0.000000 0.000000
vt  0.000000 0.000000 0.000000
vt  0.000000 0.000000 0.000000
vt  0.000000 0.000000 0.000000
vt  0.000000 0.000000 0.000000
vt  0.000000 0.000000 0.000000
vt  0.000000 0.000000 0.000000
vt  0.000000 0.000000 0.000000
vt  0.000000 0.000000 0.000000
vt  0.000000 0.000000 0.000000
vt  0.000000 0.000000 0.000000
vt  0.000000 0.000000 0.000000
vt  0.000000 0.000000 0.000000
vt  0.000000 0.000000 0.000000
vt  0.000000 0.000000 0.000000
vt  0.000000 0.000000 0.000000
vt  0.000000 0.000000 0.000000
vt  0.000000 0.000000 0.000000
vt  0.000000 0.000000 0.000000
vt  0.000000 0.000000 0.000000

vn  0.577350 0.577350 0.577350
vn  0.408248 -0.816497 0.408248
vn  0.816497 -0.408248 -0.408248
vn  0.408248 0.408248 -0.816497
vn  -0.816497 0.408248 0.408248
vn  -0.408248 0.816497 -0.408248
vn  -0.577350 -0.577350 -0.577350
vn  -0.408248 -0.408248 0.816497
vn  0.577350 0.577350 0.577350
vn  0.408248 -0.816497 0.408248
vn  0.816497 -0.408248 -0.408248
vn  0.408248 0.408248 -0.816497
vn  -0.816497 0.408248 0.408248
vn  -0.408248 0.816497 -0.408248
vn  -0.577350 -0.577350 -0.577350
vn  -0.408248 -0.408248 0.816497
vn  0.577350 0.577350 0.577350
vn  0.408248 -0.816497 0.408248
vn  0.816497 -0.408248 -0.408248
vn  0.408248 0.408248 -0.816497
vn  -0.816497 0.408248 0.408248
vn  -0.408248 0.816497 -0.408248
vn  -0.577350 -0.577350 -0.577350
vn  -0.408248 -0.408248 0.816497
vn  0.577350 0.577350 0.577350
vn  0.408248 -0.816497 0.408248
vn  0.816497 -0.408248 -0.408248
vn  0.408248 0.408248 -0.816497
vn  -0.816497 0.408248 0.408248
vn  -0.408248 0.816497 -0.408248
vn  -0.577350 -0.577350 -0.577350
vn  -0.408248 -0.408248 0.816497
vn  0.577350 0.577350 0.577350
vn  0.408248 -0.816497 0.408248
vn  0.816497 -0.408248 -0.408248
vn  0.408248 0.408248 -0.816497
vn  -0.816497 0.408248 0.408248
vn  -0.408248 0.816497 -0.408248
vn  -0.577350 -0.577350 -0.577350
vn  -0.408248 -0.408248 0.816497
vn  0.577350 0.577350 0.577350
vn  0.408248 -0.816497 0.408248
vn  0.816497 -0.408248 -0.408248
vn  0.408248 0.408248 -0.816497
vn  -0.816497 0.408248 0.408248
vn  -0.408248 0.816497 -0.408248
vn  -0.577350 -0.577350 -0.577350
vn  -0.408248 -0.408248 0.816497
vn  0.577350 0.577350 0.577350
vn  0.408248 -0.816497 0.408248
vn  0.816497 -0.408248 -0.408248
vn  0.408248 0.408248 -0.816497
vn  -0.816497 0.408248 0.408248
vn  -0.408248 0.816497 -0.408248
vn  -0.577350 -0.577350 -0.577350
vn  -0.408248 -0.408248 0.816497
vn  0.577350 0.577350 0.577350
vn  0.408248 -0.816497 0.408248
vn  0.816497 -0.408248 -0.408248
vn  0.408248 0.408248 -0.816497
vn  -0.816497 0.408248 0.408248
vn  -0.408248 0.816497 -0.408248
vn  -0.577350 -0.577350 -0.577350
vn  -0.408248 -0.408248 0.816497

g Mesh_0709.rip
usemtl Tex_2563_3.dds
f  1/1/1 2/2/2 3/3/3
f  1/1/1 3/3/3 4/4/4
f  5/5/5 6/6/6 7/7/7
f  5/5/5 7/7/7 8/8/8
f  1/1/1 4/4/4 6/6/6
f  1/1/1 6/6/6 5/5/5
f  2/2/2 8/8/8 7/7/7
f  2/2/2 7/7/7 3/3/3
f  1/1/1 5/5/5 8/8/8
f  1/1/1 8/8/8 2/2/2
f  4/4/4 3/3/3 7/7/7
f  4/4/4 7/7/7 6/6/6
f  9/9/9 10/10/10 11/11/11
f  9/9/9 11/11/11 12/12/12
f  13/13/13 14/14/14 15/15/15
f  13/13/13 15/15/15 16/16/16
f  9/9/9 12/12/12 14/14/14
f  9/9/9 14/14/14 13/13/13
f  10/10/10 16/16/16 15/15/15
f  10/10/10 15/15/15 11/11/11
f  9/9/9 13/13/13 16/16/16
f  9/9/9 16/16/16 10/10/10
f  12/12/12 11/11/11 15/15/15
f  12/12/12 15/15/15 14/14/14
f  17/17/17 18/18/18 19/19/19
f  17/17/17 19/19/19 20/20/20
f  21/21/21 22/22/22 23/23/23
f  21/21/21 23/23/23 24/24/24
f  17/17/17 20/20/20 22/22/22
f  17/17/17 22/22/22 21/21/21
f  18/18/18 24/24/24 23/23/23
f  18/18/18 23/23/23 19/19/19
f  17/17/17 21/21/21 24/24/24
f  17/17/17 24/24/24 18/18/18
f  20/20/20 19/19/19 23/23/23
f  20/20/20 23/23/23 22/22/22
f  25/25/25 26/26/26 27/27/27
f  25/25/25 27/27/27 28/28/28
f  29/29/29 30/30/30 31/31/31
f  29/29/29 31/31/31 32/32/32
f  25/25/25 28/28/28 30/30/30
f  25/25/25 30/30/30 29/29/29
f  26/26/26 32/32/32 31/31/31
f  26/26/26 31/31/31 27/27/27
f  25/25/25 29/29/29 32/32/32
f  25/25/25 32/32/32 26/26/26
f  28/28/28 27/27/27 31/31/31
f  28/28/28 31/31/31 30/30/30
f  33/33/33 34/34/34 35/35/35
f  33/33/33 35/35/35 36/36/36
f  37/37/37 38/38/38 39/39/39
f  37/37/37 39/39/39 40/40/40
f  33/33/33 36/36/36 38/38/38
f  33/33/33 38/38/38 37/37/37
f  34/34/34 40/40/40 39/39/39
f  34/34/34 39/39/39 35/35/35
f  33/33/33 37/37/37 40/40/40
f  33/33/33 40/40/40 34/34/34
f  36/36/36 35/35/35 39/39/39
f  36/36/36 39/39/39 38/38/38
f  41/41/41 42/42/42 43/43/43
f  41/41/41 43/43/43 44/44/44
f  45/45/45 46/46/46 47/47/47
f  45/45/45 47/47/47 48/48/48
f  41/41/41 44/44/44 46/46/46
f  41/41/41 46/46/46 45/45/45
f  42/42/42 48/48/48 47/47/47
f  42/42/42 47/47/47 43/43/43
f  41/41/41 45/45/45 48/48/48
f  41/41/41 48/48/48 42/42/42
f  44/44/44 43/43/43 47/47/47
f  44/44/44 47/47/47 46/46/46
f  49/49/49 50/50/50 51/51/51
f  49/49/49 51/51/51 52/52/52
f  53/53/53 54/54/54 55/55/55
f  53/53/53 55/55/55 56/56/56
f  49/49/49 52/52/52 54/54/54
f  49/49/49 54/54/54 53/53/53
f  50/50/50 56/56/56 55/55/55
f  50/50/50 55/55/55 51/51/51
f  49/49/49 53/53/53 56/56/56
f  49/49/49 56/56/56 50/50/50
f  52/52/52 51/51/51 55/55/55
f  52/52/52 55/55/55 54/54/54
f  57/57/57 58/58/58 59/59/59
f  57/57/57 59/59/59 60/60/60
f  61/61/61 62/62/62 63/63/63
f  61/61/61 63/63/63 64/64/64
f  57/57/57 60/60/60 62/62/62
f  57/57/57 62/62/62 61/61/61
f  58/58/58 64/64/64 63/63/63
f  58/58/58 63/63/63 59/59/59
f  57/57/57 61/61/61 64/64/64
f  57/57/57 64/64/64 58/58/58
f  60/60/60 59/59/59 63/63/63
f  60/60/60 63/63/63 62/62/62

g
